<svg xmlns="http://www.w3.org/2000/svg" width="0" height="0"><defs><symbol id="add-line" viewBox="0 0 24 24"><path fill="currentColor" d="M11 11V5h2v6h6v2h-6v6h-2v-6H5v-2z"/></symbol><symbol id="archive-stack-line" viewBox="0 0 24 24"><path fill="currentColor" d="M4 5h16V3H4zm16 4H4V7h16zM3 11h7v2h4v-2h7v9a1 1 0 0 1-1 1H4a1 1 0 0 1-1-1zm13 2v2H8v-2H5v6h14v-6z"/></symbol><symbol id="home-5-line" viewBox="0 0 24 24"><path fill="currentColor" d="M13 19h6V9.978l-7-5.444-7 5.444V19h6v-6h2zm8 1a1 1 0 0 1-1 1H4a1 1 0 0 1-1-1V9.49a1 1 0 0 1 .386-.79l8-6.223a1 1 0 0 1 1.228 0l8 6.223a1 1 0 0 1 .386.79z"/></symbol><symbol id="play-large-fill" viewBox="0 0 24 24"><path fill="currentColor" d="M6 20.196V3.804a1 1 0 0 1 1.53-.848l13.113 8.196a1 1 0 0 1 0 1.696L7.53 21.044A1 1 0 0 1 6 20.196"/></symbol><symbol id="search-line" viewBox="0 0 24 24"><path fill="currentColor" d="m18.031 16.617 4.283 4.282-1.415 1.415-4.282-4.283A8.96 8.96 0 0 1 11 20c-4.968 0-9-4.032-9-9s4.032-9 9-9 9 4.032 9 9a8.96 8.96 0 0 1-1.969 5.617m-2.006-.742A6.98 6.98 0 0 0 18 11c0-3.867-3.133-7-7-7s-7 3.133-7 7 3.133 7 7 7a6.98 6.98 0 0 0 4.875-1.975z"/></symbol><symbol id="time-line" viewBox="0 0 24 24"><path fill="currentColor" d="M12 22C6.477 22 2 17.523 2 12S6.477 2 12 2s10 4.477 10 10-4.477 10-10 10m0-2a8 8 0 1 0 0-16 8 8 0 0 0 0 16m1-8h4v2h-6V7h2z"/></symbol></defs></svg>