<svg xmlns="http://www.w3.org/2000/svg" width="0" height="0"><defs><symbol id="add-line" viewBox="0 0 24 24"><path fill="currentColor" d="M11 11V5h2v6h6v2h-6v6h-2v-6H5v-2z"/></symbol><symbol id="archive-stack-line" viewBox="0 0 24 24"><path fill="currentColor" d="M4 5h16V3H4zm16 4H4V7h16zM3 11h7v2h4v-2h7v9a1 1 0 0 1-1 1H4a1 1 0 0 1-1-1zm13 2v2H8v-2H5v6h14v-6z"/></symbol><symbol id="home-5-line" viewBox="0 0 24 24"><path fill="currentColor" d="M13 19h6V9.978l-7-5.444-7 5.444V19h6v-6h2zm8 1a1 1 0 0 1-1 1H4a1 1 0 0 1-1-1V9.49a1 1 0 0 1 .386-.79l8-6.223a1 1 0 0 1 1.228 0l8 6.223a1 1 0 0 1 .386.79z"/></symbol><symbol id="pause-fill" viewBox="0 0 24 24"><path fill="currentColor" d="M6 5h2v14H6zm10 0h2v14h-2z"/></symbol><symbol id="play-fill" viewBox="0 0 24 24"><path fill="currentColor" d="M19.376 12.416 8.777 19.482A.5.5 0 0 1 8 19.066V4.934a.5.5 0 0 1 .777-.416l10.599 7.066a.5.5 0 0 1 0 .832"/></symbol><symbol id="play-large-fill" viewBox="0 0 24 24"><path fill="currentColor" d="M6 20.196V3.804a1 1 0 0 1 1.53-.848l13.113 8.196a1 1 0 0 1 0 1.696L7.53 21.044A1 1 0 0 1 6 20.196"/></symbol><symbol id="repeat-line" viewBox="0 0 24 24"><path fill="currentColor" d="M6 4h15a1 1 0 0 1 1 1v7h-2V6H6v3L1 5l5-4zm12 16H3a1 1 0 0 1-1-1v-7h2v6h14v-3l5 4-5 4z"/></symbol><symbol id="search-line" viewBox="0 0 24 24"><path fill="currentColor" d="m18.031 16.617 4.283 4.282-1.415 1.415-4.282-4.283A8.96 8.96 0 0 1 11 20c-4.968 0-9-4.032-9-9s4.032-9 9-9 9 4.032 9 9a8.96 8.96 0 0 1-1.969 5.617m-2.006-.742A6.98 6.98 0 0 0 18 11c0-3.867-3.133-7-7-7s-7 3.133-7 7 3.133 7 7 7a6.98 6.98 0 0 0 4.875-1.975z"/></symbol><symbol id="shuffle-line" viewBox="0 0 24 24"><path fill="currentColor" d="M18 17.883V16l5 3-5 3v-2.09a9 9 0 0 1-6.997-5.365L11 14.54l-.003.006A9 9 0 0 1 2.725 20H2v-2h.725a7 7 0 0 0 6.434-4.243L9.912 12l-.753-1.757A7 7 0 0 0 2.725 6H2V4h.725a9 9 0 0 1 8.272 5.455L11 9.46l.003-.006A9 9 0 0 1 18 4.09V2l5 3-5 3V6.117a7 7 0 0 0-5.159 4.126L12.088 12l.753 1.757A7 7 0 0 0 18 17.883"/></symbol><symbol id="skip-back-fill" viewBox="0 0 24 24"><path fill="currentColor" d="m8 11.333 10.223-6.815a.5.5 0 0 1 .777.416v14.132a.5.5 0 0 1-.777.416L8 12.667V19a1 1 0 1 1-2 0V5a1 1 0 0 1 2 0z"/></symbol><symbol id="skip-forward-fill" viewBox="0 0 24 24"><path fill="currentColor" d="M16 12.667 5.777 19.482A.5.5 0 0 1 5 19.066V4.934a.5.5 0 0 1 .777-.416L16 11.333V5a1 1 0 1 1 2 0v14a1 1 0 1 1-2 0z"/></symbol><symbol id="time-line" viewBox="0 0 24 24"><path fill="currentColor" d="M12 22C6.477 22 2 17.523 2 12S6.477 2 12 2s10 4.477 10 10-4.477 10-10 10m0-2a8 8 0 1 0 0-16 8 8 0 0 0 0 16m1-8h4v2h-6V7h2z"/></symbol><symbol id="volume-up-line" viewBox="0 0 24 24"><path fill="currentColor" d="M6.603 10 10 7.22v9.56L6.603 14H3v-4zM2 16h3.889l5.294 4.332a.5.5 0 0 0 .817-.387V4.055a.5.5 0 0 0-.817-.387L5.89 8H2a1 1 0 0 0-1 1v6a1 1 0 0 0 1 1m21-4c0 3.292-1.446 6.246-3.738 8.262l-1.418-1.418A8.98 8.98 0 0 0 21 12a8.98 8.98 0 0 0-3.155-6.844l1.417-1.418A10.97 10.97 0 0 1 23 12m-5 0a5.99 5.99 0 0 0-2.287-4.713l-1.429 1.429A4 4 0 0 1 16 12c0 1.36-.679 2.561-1.716 3.284l1.43 1.43A5.99 5.99 0 0 0 18 12"/></symbol></defs></svg>